<svg width="805" height="355" viewBox="0 0 805 355" fill="none" xmlns="http://www.w3.org/2000/svg">
<path d="M577.047 38.4887L530.849 128.156V172.418H498.338V128.156L452.136 38.4887H489.02L514.875 94.5788L540.542 38.4887H577.047Z" fill="#BA6CFC"/>
<path d="M434.56 147.234H477.147V172.418H402.049V38.4887H434.56V147.234Z" fill="#BA6CFC"/>
<path d="M111.906 50.1795L52.7946 172.519H89.7956L135.596 71.0941V172.519H169.212V38.4887C156.127 38.5638 132.078 38.4887 125.218 38.4887C118.224 38.4892 113.786 46.2067 111.906 50.1795Z" fill="#BA6CFC"/>
<path d="M280.853 81.6056C280.853 89.364 279.08 96.4866 275.531 102.974C271.982 109.333 266.532 114.484 259.18 118.426C251.828 122.369 242.702 124.341 231.803 124.341H211.65V172.418H179.14V38.4887H231.803C242.45 38.4887 251.449 40.333 258.799 44.0215C266.151 47.7096 271.665 52.7973 275.34 59.2838C279.016 65.7707 280.853 73.2112 280.853 81.6056ZM229.331 98.3944C235.541 98.3944 240.168 96.9312 243.21 94.0063C246.251 91.0815 247.772 86.9476 247.772 81.6056C247.772 76.2635 246.251 72.1299 243.21 69.2048C240.168 66.2792 235.541 64.8166 229.331 64.8166H211.65V98.3944H229.331Z" fill="#BA6CFC"/>
<path d="M392.308 81.6056C392.308 89.364 390.534 96.4866 386.985 102.974C383.436 109.333 377.986 114.484 370.634 118.426C363.283 122.369 354.157 124.341 343.258 124.341H323.105V172.418H290.595V38.4887H343.258C353.905 38.4887 362.903 40.333 370.254 44.0215C377.605 47.7096 383.119 52.7973 386.794 59.2838C390.471 65.7707 392.308 73.2112 392.308 81.6056ZM340.786 98.3944C346.996 98.3944 351.622 96.9312 354.665 94.0063C357.706 91.0815 359.227 86.9476 359.227 81.6056C359.227 76.2635 357.706 72.1299 354.665 69.2048C351.622 66.2792 346.996 64.8166 340.786 64.8166H323.105V98.3944H340.786Z" fill="#BA6CFC"/>
<path d="M334.247 316.511L306.506 265.916H298.718V316.511H266.228V182.481H320.756C331.271 182.481 340.2 184.326 347.546 188.018C355.018 191.709 360.592 196.801 364.267 203.292C367.937 209.657 369.777 216.784 369.777 224.676C369.777 233.586 367.243 241.541 362.174 248.541C357.236 255.542 349.891 260.506 340.137 263.434L370.914 316.511H334.247ZM298.718 242.814H318.857C324.809 242.814 329.243 241.35 332.156 238.423C335.195 235.494 336.714 231.358 336.714 226.012C336.714 220.92 335.195 216.911 332.156 213.984C329.243 211.057 324.809 209.593 318.857 209.593H298.718V242.814Z" fill="#BA6CFC"/>
<path d="M176.939 182.481V261.879C176.939 269.819 178.906 275.931 182.839 280.215C186.772 284.5 192.545 286.643 200.157 286.643C207.77 286.643 213.607 284.5 217.667 280.215C221.726 275.931 223.757 269.819 223.757 261.879V182.481H256.301V261.689C256.301 273.536 253.763 283.556 248.688 291.747C243.612 299.939 236.761 306.115 228.134 310.273C219.633 314.433 210.117 316.511 199.587 316.511C189.055 316.511 179.604 314.495 171.229 310.462C162.982 306.303 156.448 300.128 151.627 291.937C146.806 283.619 144.395 273.536 144.395 261.689V182.481H176.939Z" fill="#BA6CFC"/>
<path d="M85.305 208.618V235.709H128.842V260.893H85.305V290.272H134.546V316.41H52.7946V182.481H134.546V208.618H85.305Z" fill="#BA6CFC"/>
<path d="M447.809 316.511C435.564 316.511 424.31 313.654 414.048 307.937C403.903 302.22 395.806 294.266 389.744 284.075C383.809 273.761 380.842 262.204 380.842 249.403C380.842 236.603 383.809 225.108 389.744 214.917C395.806 204.726 403.903 196.772 414.048 191.055C424.31 185.339 435.564 182.481 447.809 182.481C460.053 182.481 471.245 185.339 481.385 191.055C491.652 196.772 499.688 204.726 505.499 214.917C511.438 225.108 514.406 236.603 514.406 249.403C514.406 262.204 511.438 273.761 505.499 284.075C499.564 294.266 491.524 302.22 481.385 307.937C471.245 313.654 460.053 316.511 447.809 316.511ZM447.809 287.431C458.195 287.431 466.482 283.951 472.667 276.992C478.972 270.032 482.129 260.836 482.129 249.403C482.129 237.845 478.972 228.649 472.667 221.814C466.482 214.854 458.195 211.375 447.809 211.375C437.295 211.375 428.885 214.793 422.58 221.627C416.394 228.462 413.303 237.721 413.303 249.403C413.303 260.961 416.394 270.219 422.58 277.179C428.885 284.014 437.295 287.431 447.809 287.431Z" fill="#BA6CFC"/>
<path d="M693.095 194.171L752.206 316.511H715.205L669.405 215.086V316.511H635.789V182.481C648.874 182.556 672.923 182.481 679.784 182.481C686.778 182.482 691.215 190.199 693.095 194.171Z" fill="#BA6CFC"/>
<path d="M626.047 225.598C626.047 233.357 624.272 240.479 620.723 246.966C617.174 253.325 611.725 258.475 604.373 262.419C597.022 266.362 587.896 268.333 576.996 268.333H556.844V316.41H524.333V182.481H576.996C587.643 182.481 596.641 184.326 603.993 188.014C611.344 191.702 616.858 196.789 620.533 203.276C624.209 209.763 626.047 217.204 626.047 225.598ZM574.525 242.386C580.735 242.386 585.361 240.924 588.403 237.998C591.445 235.073 592.966 230.94 592.966 225.598C592.966 220.256 591.445 216.122 588.403 213.197C585.361 210.271 580.735 208.809 574.525 208.809H556.844V242.386H574.525Z" fill="#BA6CFC"/>
</svg>
